<?xml version="1.0" encoding="UTF-8" standalone="no"?>
<!DOCTYPE svg PUBLIC "-//W3C//DTD SVG 1.1//EN" "http://www.w3.org/Graphics/SVG/1.1/DTD/svg11.dtd">
<svg width="100%" height="100%" viewBox="0 0 79 22" version="1.1" xmlns="http://www.w3.org/2000/svg" xmlns:xlink="http://www.w3.org/1999/xlink" xml:space="preserve" xmlns:serif="http://www.serif.com/" style="fill-rule:evenodd;clip-rule:evenodd;stroke-linejoin:round;stroke-miterlimit:2;">
    <g transform="matrix(1,0,0,1,-10.5,-64)">
        <g transform="matrix(1,0,0,1,0,47)">
            <path d="M89.5,28C89.5,21.929 84.571,17 78.5,17L21.5,17C15.429,17 10.5,21.929 10.5,28C10.5,34.071 15.429,39 21.5,39L78.5,39C84.571,39 89.5,34.071 89.5,28ZM49.601,35.505C53.047,35.505 55.593,33.675 56.247,30.587L58.384,20.495L54.622,20.495L52.658,29.769C52.311,31.415 51.288,32.315 49.816,32.315C48.384,32.315 47.393,31.517 47.382,30.198C47.372,29.912 47.413,29.605 47.485,29.268L49.335,20.495L45.583,20.495L43.712,29.329C43.62,29.769 43.579,30.209 43.579,30.607C43.579,33.47 45.828,35.505 49.601,35.505ZM42.106,32.151L35.849,32.151L38.323,20.495L34.571,20.495L31.431,35.249L41.452,35.249L42.106,32.151ZM73.262,35.249L74.427,29.748L79.99,29.748L80.603,26.875L75.041,26.875L75.757,23.511L81.892,23.511L82.536,20.495L72.505,20.495L69.366,35.249L73.262,35.249ZM25.082,35.249C28.323,35.249 30.634,33.286 30.634,30.546C30.634,29.033 29.519,27.898 27.945,27.56L27.955,27.489C29.949,27.09 31.37,25.618 31.37,23.665C31.37,21.855 29.857,20.495 27.065,20.495L20.603,20.495L17.464,35.249L25.082,35.249ZM61.513,35.249L62.679,29.748L68.241,29.748L68.855,26.875L63.292,26.875L64.008,23.511L70.143,23.511L70.787,20.495L60.757,20.495L57.618,35.249L61.513,35.249ZM21.708,32.591L22.515,28.767L24.775,28.767C26.166,28.767 26.881,29.37 26.881,30.372C26.881,31.701 25.838,32.591 24.223,32.591L21.708,32.591ZM23.753,22.928L25.736,22.928C26.973,22.928 27.618,23.481 27.618,24.35C27.618,25.505 26.636,26.344 25.153,26.344L23.037,26.344L23.753,22.928Z" style="fill:rgb(235,235,235);"/>
        </g>
    </g>
</svg>
