<?xml version="1.0" encoding="UTF-8" standalone="no"?>
<!DOCTYPE svg PUBLIC "-//W3C//DTD SVG 1.1//EN" "http://www.w3.org/Graphics/SVG/1.1/DTD/svg11.dtd">
<svg width="100%" height="100%" viewBox="0 0 45 45" version="1.1" xmlns="http://www.w3.org/2000/svg" xmlns:xlink="http://www.w3.org/1999/xlink" xml:space="preserve" xmlns:serif="http://www.serif.com/" style="fill-rule:evenodd;clip-rule:evenodd;stroke-linejoin:round;stroke-miterlimit:2;">
    <g transform="matrix(1,0,0,1,-44.5,-107.5)">
        <g transform="matrix(1.07143,0,0,1.42857,16.6429,-58.2143)">
            <path d="M68,119.5C68,117.568 65.909,116 63.333,116L30.667,116C28.091,116 26,117.568 26,119.5C26,121.432 28.091,123 30.667,123L63.333,123C65.909,123 68,121.432 68,119.5Z" style="fill:rgb(235,235,235);"/>
        </g>
        <g transform="matrix(1.07143,0,0,1.42857,16.6429,-23.2143)">
            <path d="M68,119.5C68,117.568 65.909,116 63.333,116L30.667,116C28.091,116 26,117.568 26,119.5C26,121.432 28.091,123 30.667,123L63.333,123C65.909,123 68,121.432 68,119.5Z" style="fill:rgb(235,235,235);"/>
        </g>
        <g transform="matrix(1.07143,0,0,1.42857,16.6429,-40.7143)">
            <path d="M68,119.5C68,117.568 65.909,116 63.333,116L30.667,116C28.091,116 26,117.568 26,119.5C26,121.432 28.091,123 30.667,123L63.333,123C65.909,123 68,121.432 68,119.5Z" style="fill:rgb(235,235,235);"/>
        </g>
    </g>
</svg>
