<?xml version="1.0" encoding="UTF-8" standalone="no"?>
<!DOCTYPE svg PUBLIC "-//W3C//DTD SVG 1.1//EN" "http://www.w3.org/Graphics/SVG/1.1/DTD/svg11.dtd">
<svg width="100%" height="100%" viewBox="0 0 500 500" version="1.1" xmlns="http://www.w3.org/2000/svg" xmlns:xlink="http://www.w3.org/1999/xlink" xml:space="preserve" xmlns:serif="http://www.serif.com/" style="fill-rule:evenodd;clip-rule:evenodd;stroke-linejoin:round;stroke-miterlimit:2;">
    <path d="M136.36,0C61.14,0 0,61.14 0,136.36L0,363.63C0,438.86 61.14,500 136.36,500L363.63,500C438.86,500 500,438.86 500,363.64L500,136.36C500,61.14 438.86,0 363.64,0L136.36,0ZM97.94,171.25C105.89,171.25 111.81,176.93 111.81,184.43C111.81,191.82 105.89,197.5 97.94,197.5C89.87,197.5 83.98,191.81 83.98,184.43C83.98,176.94 89.88,171.25 97.94,171.25ZM216.35,177.73C257.83,177.73 283.4,206.69 283.4,253.17C283.4,299.53 258.05,328.74 216.35,328.74C174.42,328.74 148.97,299.64 148.97,253.17C148.97,206.58 174.99,177.73 216.35,177.73ZM363.3,177.73C392.5,177.73 413.85,194.76 415.21,219.08L393.4,219.08C391.24,205.78 379.77,197.51 362.95,197.51C345.22,197.51 333.52,205.9 333.52,218.97C333.52,229.2 341.02,235.11 359.89,239.54L375.69,243.4C405.35,250.33 417.51,262.27 417.51,283.97C417.51,311.58 396.14,328.85 361.93,328.85C330,328.85 308.52,312.39 306.93,286.59L329.1,286.59C331.03,300.23 344.43,308.96 363.63,308.96C381.59,308.96 394.77,299.65 394.77,286.81C394.77,275.9 386.47,269.32 367.38,264.77L348.74,260.33C322.72,254.19 310.79,241.58 310.79,220.45C310.79,194.78 331.83,177.73 363.3,177.73ZM216.35,198.53C189.19,198.53 171.94,219.76 171.94,253.17C171.94,286.46 188.62,307.95 216.35,307.95C243.74,307.95 260.56,286.47 260.56,253.17C260.57,219.77 243.74,198.53 216.35,198.53ZM87.27,216.6L108.64,216.6L108.64,325.35L87.27,325.35L87.27,216.6Z" style="fill:white;fill-rule:nonzero;"/>
</svg>
