<?xml version="1.0" encoding="UTF-8" standalone="no"?>
<!DOCTYPE svg PUBLIC "-//W3C//DTD SVG 1.1//EN" "http://www.w3.org/Graphics/SVG/1.1/DTD/svg11.dtd">
<svg width="100%" height="100%" viewBox="0 0 42 42" version="1.1" xmlns="http://www.w3.org/2000/svg" xmlns:xlink="http://www.w3.org/1999/xlink" xml:space="preserve" xmlns:serif="http://www.serif.com/" style="fill-rule:evenodd;clip-rule:evenodd;stroke-linejoin:round;stroke-miterlimit:2;">
    <g transform="matrix(1,0,0,1,-115,-54)">
        <g transform="matrix(1,0,0,1,110,0)">
            <g transform="matrix(1,0,0,1,-110,0)">
                <path d="M136,54C147.59,54 157,63.41 157,75C157,86.59 147.59,96 136,96C124.41,96 115,86.59 115,75C115,63.41 124.41,54 136,54ZM125.613,84.378C131.145,84.378 134.041,81.173 134.041,74.953C134.041,68.732 131.145,65.622 125.613,65.622C120.105,65.622 117.208,68.732 117.208,74.953C117.208,81.173 120.105,84.378 125.613,84.378ZM148.904,77.469C148.191,77.493 147.812,77.066 147.812,76.638C147.812,76.306 148.025,75.926 148.476,75.855L151.064,75.451C154.198,74.953 154.792,73.077 154.792,71.581C154.792,68.02 151.539,65.622 146.909,65.622C139.692,65.622 136.297,69.563 136.297,74.905C136.297,80.722 139.716,84.022 145.295,84.022L148.286,84.022C152.75,84.022 154.649,83.215 154.649,80.722C154.649,78.585 152.774,77.279 150.898,77.374L148.904,77.469ZM138.386,71.51C138.79,70.489 139.763,69.848 141.235,69.848L150.637,69.919C152.37,69.943 153.296,70.821 153.296,71.771C153.296,73.219 152.133,73.837 150.138,73.433L141.567,71.724C140.689,71.557 140.143,71.842 140.001,72.293C139.811,72.911 140.048,73.362 140.76,73.789L147.954,78.063C150.02,79.297 149.972,80.935 149.022,82.075C147.907,83.405 145.532,83.476 143.586,80.841L138.766,74.288C138.101,73.362 138.054,72.341 138.386,71.51ZM126.017,82.313C125.114,83.381 123.595,82.811 123.215,81.577L120.01,71.344C119.321,69.112 120.817,67.877 122.716,68.637L131.715,72.246C132.854,72.697 133.092,73.765 132.284,74.739L126.017,82.313Z" style="fill:rgb(235,235,235);"/>
            </g>
        </g>
    </g>
</svg>
